<svg xmlns="http://www.w3.org/2000/svg" width="227.036" height="170.303" viewBox="0 0 227.036 170.303">
  <g id="Group_43" data-name="Group 43" transform="translate(-1104.036 -630.182)">
    <g id="wallet-solid" transform="translate(1101.036 626.182)">
      <path id="Path_106" data-name="Path 106" d="M222.7,64.824H208.462V34.414c0-3.359-3.285-6.082-7.338-6.082H25.014c-4.053,0-7.338-2.723-7.338-6.082s3.285-6.082,7.338-6.082H198.189c4.053,0,7.338-2.723,7.338-6.082S202.242,4,198.189,4H25.014C13.1,3.8,3.241,11.643,3,21.52V149.244c.019,6.673,3.241,13.065,8.954,17.766a33.79,33.79,0,0,0,21.5,7.293H201.124c4.053,0,7.338-2.723,7.338-6.082v-30.41H222.7a7.74,7.74,0,0,0,5.108-1.457,5.294,5.294,0,0,0,2.23-4.078V71.454C230.086,67.984,226.872,65.081,222.7,64.824Zm-6.9,60.821h-62.96c-15.659-.462-27.907-11.349-27.371-24.328-.536-12.979,11.712-23.866,27.37-24.328H215.8Z" transform="translate(0 0)" fill="#1bab4b"/>
      <path id="Path_107" data-name="Path 107" d="M44.554,27.543c0,5.039-4.928,9.123-11.007,9.123S22.54,32.582,22.54,27.543s4.928-9.123,11.007-9.123S44.554,22.5,44.554,27.543Z" transform="translate(123.843 73.287)" fill="#1bab4b"/>
    </g>
    <g id="clipboard-data" transform="translate(1115.25 681.688)">
      <path id="Path_83" data-name="Path 83" d="M23.1,3.375H16.148c-7.676,0-13.9,5.065-13.9,11.313V74.078c0,6.248,6.222,11.313,13.9,11.313h69.49c7.676,0,13.9-5.065,13.9-11.312V14.688c0-6.248-6.222-11.312-13.9-11.312H78.689V9.031h6.949c3.838,0,6.949,2.532,6.949,5.656V74.078c0,3.124-3.111,5.656-6.949,5.656H16.148C12.31,79.734,9.2,77.2,9.2,74.078V14.688c0-3.124,3.111-5.656,6.949-5.656H23.1Z" transform="translate(0 5.109)" fill="#fff" fill-rule="evenodd"/>
      <path id="Path_84" data-name="Path 84" d="M42.52,5.656H21.673c-1.919,0-3.474,1.266-3.474,2.828v5.656c0,1.562,1.556,2.828,3.474,2.828H42.52c1.919,0,3.474-1.266,3.474-2.828V8.484C45.995,6.922,44.439,5.656,42.52,5.656ZM21.673,0C15.917,0,11.25,3.8,11.25,8.484v5.656c0,4.686,4.667,8.484,10.423,8.484H42.52c5.757,0,10.423-3.8,10.423-8.484V8.484C52.944,3.8,48.277,0,42.52,0Z" transform="translate(18.796)" fill="#fff" fill-rule="evenodd"/>
      <path id="Path_85" data-name="Path 85" d="M9,41.781c0-3.124,3.111-5.656,6.949-5.656S22.9,38.657,22.9,41.781v5.656c0,3.124-3.111,5.656-6.949,5.656S9,50.561,9,47.438ZM50.694,19.156c0-3.124,3.111-5.656,6.949-5.656s6.949,2.532,6.949,5.656V47.438c0,3.124-3.111,5.656-6.949,5.656s-6.949-2.532-6.949-5.656ZM29.847,30.469c0-3.124,3.111-5.656,6.949-5.656s6.949,2.532,6.949,5.656V47.438c0,3.124-3.111,5.656-6.949,5.656s-6.949-2.532-6.949-5.656Z" transform="translate(14.097 20.438)" fill="#fff"/>
    </g>
    <path id="check-circle" d="M18,33A15,15,0,1,1,33,18,15,15,0,0,1,18,33ZM12,15,9,18l7.5,7.5L27,15l-3-3-7.5,7.5Z" transform="translate(1184 683.697)" fill="#fff"/>
  </g>
</svg>
