<svg id="Capa_1" enable-background="new 0 0 512 512" height="512" viewBox="0 0 512 512" width="512" xmlns="http://www.w3.org/2000/svg"><g><g><path d="m466 0h-420c-8.401 0-15 6.599-15 15l.3 297.599 215.937 31.153 233.763-31.153v-297.599c0-8.401-6.599-15-15-15z" fill="#ecf2ff"/><path d="m465.999 0h-210.058v342.592l225.058-29.992v-297.6c0-8.401-6.599-15-15-15z" fill="#d9e5ff"/><g><path d="m511.7 494.599c.901 4.2-.3 8.701-3.3 12.001-2.701 3.6-6.899 5.4-11.4 5.4h-482c-4.501 0-8.699-1.8-11.4-5.4-2.999-3.3-4.2-7.8-3.3-12.001l31-182h449.7z" fill="#5a77b3"/></g><path d="m255.941 312.6v199.4h241.059c4.501 0 8.699-1.8 11.4-5.4 2.999-3.3 4.2-7.8 3.3-12.001l-30.7-182h-225.059z" fill="#465d8c"/><g id="Radar_System_1_"><g><path d="m166 90h-60c-8.291 0-15-6.709-15-15s6.709-15 15-15h60c8.291 0 15 6.709 15 15s-6.709 15-15 15z" fill="#5a77b3"/></g><g><path d="m166 150h-60c-8.291 0-15-6.709-15-15s6.709-15 15-15h60c8.291 0 15 6.709 15 15s-6.709 15-15 15z" fill="#5a77b3"/></g><g><circle cx="106" cy="225" fill="#5a77b3" r="15"/></g><g><circle cx="166" cy="225" fill="#5a77b3" r="15"/></g><g><circle cx="316" cy="375" fill="#d9e5ff" r="15"/></g><g><circle cx="376" cy="375" fill="#d9e5ff" r="15"/></g><g><circle cx="436" cy="375" fill="#d9e5ff" r="15"/></g><g><path d="m346 450h-60c-8.291 0-15-6.709-15-15s6.709-15 15-15h60c8.291 0 15 6.709 15 15s-6.709 15-15 15z" fill="#d9e5ff"/></g><g><path d="m466 450h-60c-8.291 0-15-6.709-15-15s6.709-15 15-15h60c8.291 0 15 6.709 15 15s-6.709 15-15 15z" fill="#d9e5ff"/></g><g><path d="m136 450c-24.814 0-45-20.186-45-45s20.186-45 45-45 45 20.186 45 45-20.186 45-45 45z" fill="#ecf2ff"/></g></g></g><g id="Radar_System"><circle cx="345.98" cy="167" fill="#5a77b3" r="45"/><path d="m435.98 167c0 49.71-40.3 90-90 90-49.71 0-90-40.29-90-90s40.29-90 90-90l23.02 38-23.02 22c-16.57 0-30 13.43-30 30s13.43 30 30 30c16.56 0 30-13.43 30-30l26.02-30z" fill="#85cc3d"/><path d="m375.98 167h-.01"/></g><path d="m435.98 167h-60c0-16.57-13.44-30-30-30v-60c49.7 0 90 40.29 90 90z" fill="#6cbf30"/></g></svg>